<?xml version="1.0" encoding="UTF-8" standalone="no"?>
<svg
   xmlns:dc="http://purl.org/dc/elements/1.1/"
   xmlns:cc="http://creativecommons.org/ns#"
   xmlns:rdf="http://www.w3.org/1999/02/22-rdf-syntax-ns#"
   xmlns:svg="http://www.w3.org/2000/svg"
   xmlns="http://www.w3.org/2000/svg"
   xmlns:sodipodi="http://sodipodi.sourceforge.net/DTD/sodipodi-0.dtd"
   xmlns:inkscape="http://www.inkscape.org/namespaces/inkscape"
   viewBox="0 0 512 512"
   version="1.1"
   id="svg6"
   sodipodi:docname="d20.svg"
   inkscape:version="0.92.4 (5da689c313, 2019-01-14)">
  <metadata
     id="metadata12">
    <rdf:RDF>
      <cc:Work
         rdf:about="">
        <dc:format>image/svg+xml</dc:format>
        <dc:type
           rdf:resource="http://purl.org/dc/dcmitype/StillImage" />
        <dc:title />
      </cc:Work>
    </rdf:RDF>
  </metadata>
  <defs
     id="defs10" />
  <sodipodi:namedview
     pagecolor="#ffffff"
     bordercolor="#666666"
     borderopacity="1"
     objecttolerance="10"
     gridtolerance="10"
     guidetolerance="10"
     inkscape:pageopacity="0"
     inkscape:pageshadow="2"
     inkscape:window-width="1920"
     inkscape:window-height="1001"
     id="namedview8"
     showgrid="false"
     inkscape:zoom="1.84375"
     inkscape:cx="42.958277"
     inkscape:cy="268.21485"
     inkscape:window-x="-9"
     inkscape:window-y="-9"
     inkscape:window-maximized="1"
     inkscape:current-layer="svg6" />
  <path
     fill="#fff"
     d="M0 0h512v512H0z"
     id="path2" />
  <path
     d="M 248,20.27 72.33,132.598 248,128.775 Z m 16,0 v 108.505 l 175.67,3.823 z m -22.131,124.641 -186.48,4.06 71.23,192.93 z m 28.26,0 115.25,196.99 71.23,-192.93 z m -14.13,7.53 -117.076,200.11 H 373.075 Z M 52,185.98 v 173.266 l 61.86,-5.703 z m 408,0 -61.86,167.563 61.86,5.703 z M 143.154,368.554 256,491.73 368.846,368.553 Z m -21.394,0.33 -53.797,4.96 c 94.3027,60.12962 -18.790308,-12.01095 140.844,90.057 z m 268.48,0 c -65.45658,70.62174 -13.77722,15.03871 -87.047,95.017 126.52019,-79.71789 63.56486,-40.64554 140.842,-90.058 z"
     id="path4"
     inkscape:connector-curvature="0"
     style="fill:#ffffff;stroke-width:9;stroke-miterlimit:4;stroke-dasharray:none;stroke:#000000;stroke-opacity:1;stroke-linecap:butt;stroke-linejoin:round"
     sodipodi:nodetypes="cccccccccccccccccccccccccccccccccccccccc" />
</svg>
